#!OML:ASF F:\VICON\USERDATA\INSTALL\Justin_Nancy\Justin_Nancy.ASF
:FULLY-SPECIFIED
:DEGREES
159
root 6.77052 17.6909 -6.01507 -1.19915 -19.6151 1.47996
lowerback 7.57943 -0.373367 -0.697547
upperback 0.914048 -0.457505 3.04839
thorax -3.275 -0.206448 3.60044
lowerneck -17.3138 -3.93663 -9.13913
upperneck 22.1338 -4.16682 4.76982
head 10.2334 -2.1541 2.6294
rclavicle 2.55438e-014 1.43125e-014
rhumerus -33.3224 -17.7615 -75.4747
rradius 29.2433
rwrist 7.84525
rhand -12.8568 15.8005
rfingers 7.12502
rthumb 13.2312 -13.7596
lclavicle 2.55438e-014 1.43125e-014
lhumerus -29.8355 10.246 82.2533
lradius 28.818
lwrist -10.448
lhand -15.1964 25.145
lfingers 7.12502
lthumb 10.9753 54.8381
rfemur -13.7166 -2.40349 28.8199
rtibia 18.6057
rfoot -1.61347 -5.96174
rtoes 12.6911
lfemur -9.62475 1.46587 -16.7296
ltibia 58.9946
lfoot 5.76594 -4.87725
ltoes -15.8463
160
root 6.71 17.6893 -5.89392 -1.19118 -20.5072 1.33421
lowerback 7.5552 -0.192181 -0.623905
upperback 0.977052 -0.210987 3.0946
thorax -3.21292 -0.0861011 3.58082
lowerneck -16.6956 -3.91942 -9.35882
upperneck 21.5995 -4.17943 4.9812
head 9.93648 -2.15573 2.73984
rclavicle -5.57591e-014 1.51076e-014
rhumerus -32.9556 -17.4465 -75.6481
rradius 29.555
rwrist 7.70037
rhand -12.9028 16.0092
rfingers 7.12502
rthumb 13.1869 -13.5538
lclavicle -5.57591e-014 1.51076e-014
lhumerus -29.926 10.3391 82.3665
lradius 28.5713
lwrist -10.5213
lhand -15.6571 25.2565
lfingers 7.12502
lthumb 10.531 54.9726
rfemur -13.1802 -2.05488 29.1107
rtibia 18.6465
rfoot -2.28222 -5.72078
rtoes 12.3177
lfemur -10.6888 1.68635 -16.5065
ltibia 59.8237
lfoot 4.61926 -4.1288
ltoes -14.7997
161
root 6.65413 17.6797 -5.7722 -1.06192 -21.2131 1.08624
lowerback 7.34252 -0.166632 -0.441183
upperback 1.02383 -0.163211 3.20447
thorax -3.04911 -0.066586 3.58426
lowerneck -16.1933 -3.8011 -9.56433
upperneck 21.2773 -4.03403 5.12043
head 9.72408 -2.09294 2.84461
rclavicle 3.30976e-014 -3.18055e-014
rhumerus -32.656 -16.4522 -75.9991
rradius 30.0704
rwrist 6.96605
rhand -12.9319 15.6224
rfingers 7.12502
rthumb 13.1588 -13.9424
lclavicle 3.30976e-014 -3.18055e-014
lhumerus -30.0982 10.7471 82.369
lradius 28.3084
lwrist -10.4389
lhand -16.1094 24.7772
lfingers 7.12502
lthumb 10.0946 54.5151
rfemur -12.7726 -1.91657 29.4807
rtibia 18.8
rfoot -2.95272 -5.43754
rtoes 12.1793
lfemur -11.7407 1.89622 -16.2131
ltibia 60.4693
lfoot 3.13132 -3.34295
ltoes -15.2032
162
root 6.59785 17.6805 -5.65409 -0.904641 -21.9068 1.00252
lowerback 7.25386 -0.0461348 -0.339505
upperback 0.962232 0.00531142 3.19343
thorax -3.07439 0.0169509 3.49824
lowerneck -16.2272 -3.76951 -9.59106
upperneck 21.5704 -3.99489 5.13772
head 9.83193 -2.07943 2.86366
rclavicle 2.03754e-014 1.27222e-014
rhumerus -32.551 -16.1848 -76.1056
rradius 30.4623
rwrist 6.70191
rhand -12.7922 15.3641
rfingers 7.12502
rthumb 13.2935 -14.1919
lclavicle 2.03754e-014 1.27222e-014
lhumerus -30.3709 11.2153 82.2564
lradius 28.039
lwrist -10.8668
lhand -15.9531 24.6831
lfingers 7.12502
lthumb 10.2454 54.4136
rfemur -12.4048 -1.842 29.6457
rtibia 18.908
rfoot -3.57405 -4.98897
rtoes 12.8226
lfemur -12.8349 1.92987 -16.1795
ltibia 60.9347
lfoot 2.10298 -2.71801
ltoes -14.9646
163
root 6.538 17.6776 -5.54144 -0.910635 -22.6702 0.967516
lowerback 7.43996 0.122243 -0.407176
upperback 0.902816 0.229369 3.23261
thorax -3.25465 0.131727 3.557
lowerneck -16.485 -3.66894 -9.58592
upperneck 22.044 -3.81761 5.02694
head 10.0324 -2.01371 2.8516
rclavicle -2.98177e-016 -6.36111e-015
rhumerus -32.3167 -16.1286 -76.0659
rradius 30.63
rwrist 6.76052
rhand -12.6816 15.1411
rfingers 7.12502
rthumb 13.4001 -14.4079
lclavicle -2.98177e-016 -6.36111e-015
lhumerus -30.5783 11.6524 82.2332
lradius 27.6615
lwrist -11.1917
lhand -15.6244 24.7706
lfingers 7.12502
lthumb 10.5625 54.4851
rfemur -11.8263 -1.43505 29.7462
rtibia 18.906
rfoot -4.19112 -4.78431
rtoes 13.8475
lfemur -13.8117 1.9132 -16.171
ltibia 61.2836
lfoot 1.35044 -2.14892
ltoes -13.2684
164
root 6.47286 17.6781 -5.42721 -0.926753 -23.5405 0.714002
lowerback 7.57966 0.254589 -0.337209
upperback 0.995901 0.412958 3.33505
thorax -3.24858 0.221219 3.60571
lowerneck -16.6051 -3.52309 -9.54743
upperneck 22.0905 -3.58802 4.9305
head 10.05 -1.91496 2.84254
rclavicle 2.46493e-014 -2.22639e-014
rhumerus -31.8055 -15.8214 -76.2903
rradius 30.8348
rwrist 6.56066
rhand -12.6662 14.8514
rfingers 7.12502
rthumb 13.4149 -14.6967
lclavicle 2.46493e-014 -2.22639e-014
lhumerus -30.61 12.196 82.1866
lradius 27.3364
lwrist -11.2253
lhand -15.4739 24.9467
lfingers 7.12502
lthumb 10.7076 54.6539
rfemur -11.071 -0.90472 30.1058
rtibia 18.7656
rfoot -4.83587 -4.72072
rtoes 14.3804
lfemur -14.7268 2.02376 -15.8475
ltibia 61.5829
lfoot 0.666274 -1.76487
ltoes -12.9321
165
root 6.41308 17.6857 -5.3095 -0.76977 -24.2178 0.444594
lowerback 7.5922 0.400306 -0.0596221
upperback 1.08143 0.625238 3.28948
thorax -3.17735 0.321535 3.37848
lowerneck -16.8383 -3.51279 -9.31697
upperneck 22.1163 -3.62336 4.96696
head 10.1008 -1.90468 2.81103
rclavicle -3.18055e-014 3.10104e-014
rhumerus -31.3578 -15.8079 -76.6105
rradius 31.113
rwrist 6.20586
rhand -12.71 14.5317
rfingers 7.12502
rthumb 13.3728 -15.0192
lclavicle -3.18055e-014 3.10104e-014
lhumerus -30.6362 12.4153 82.0986
lradius 27.2882
lwrist -10.9402
lhand -15.3876 25.5123
lfingers 7.12502
lthumb 10.7909 55.2151
rfemur -10.4731 -0.610626 30.4575
rtibia 18.5808
rfoot -5.3145 -4.59524
rtoes 14.0793
lfemur -15.9311 1.93627 -15.5596
ltibia 61.8343
lfoot 0.0789303 -1.53837
ltoes -13.5937
166
root 6.35616 17.683 -5.19858 -0.553891 -24.6625 0.190445
lowerback 7.70673 0.498221 0.188828
upperback 0.991749 0.780244 3.26816
thorax -3.33992 0.39724 3.19949
lowerneck -16.6089 -3.48841 -9.21397
upperneck 22.0871 -3.65369 5.0155
head 10.0476 -1.90752 2.80826
rclavicle 1.68967e-014 -4.69132e-014
rhumerus -31.2835 -15.8971 -76.6968
rradius 31.4694
rwrist 5.97748
rhand -12.5851 14.4643
rfingers 7.12502
rthumb 13.4932 -15.0786
lclavicle 1.68967e-014 -4.69132e-014
lhumerus -30.9939 12.7749 81.9859
lradius 27.2624
lwrist -10.8949
lhand -15.3728 25.6065
lfingers 7.12502
lthumb 10.8052 55.3086
rfemur -9.97216 -0.364503 30.7721
rtibia 18.3911
rfoot -5.70935 -4.55105
rtoes 13.2518
lfemur -17.2816 1.65918 -15.3444
ltibia 62.034
lfoot -1.0028 -1.20303
ltoes -12.7124
167
root 6.29998 17.6747 -5.08074 -0.431288 -25.1725 0.0895396
lowerback 7.67347 0.649827 0.344305
upperback 0.947446 0.994338 3.22612
thorax -3.37557 0.501967 3.04519
lowerneck -16.5506 -3.53426 -9.14404
upperneck 22.2218 -3.73788 4.97126
head 10.0892 -1.9486 2.77106
rclavicle -4.56211e-014 -1.03368e-014
rhumerus -31.2652 -15.9128 -76.6973
rradius 31.8506
rwrist 5.70304
rhand -12.5707 14.5521
rfingers 7.12502
rthumb 13.507 -14.9899
lclavicle -4.56211e-014 -1.03368e-014
lhumerus -31.2356 12.7777 82.0427
lradius 27.1519
lwrist -10.8251
lhand -15.1747 25.7638
lfingers 7.12502
lthumb 10.9962 55.4558
rfemur -9.55089 -0.123279 30.9193
rtibia 18.4482
rfoot -6.23821 -4.45134
rtoes 12.8606
lfemur -18.4111 1.42892 -15.3475
ltibia 62.0902
lfoot -2.50912 -0.786563
ltoes -11.1615
168
root 6.24526 17.6673 -4.95802 -0.187969 -25.6584 -0.116823
lowerback 7.38151 0.781992 0.75457
upperback 1.05867 1.18943 3.13625
thorax -3.0968 0.591499 2.70196
lowerneck -17.0115 -3.5892 -8.878
upperneck 22.3932 -3.80697 4.80663
head 10.2343 -1.97239 2.65646
rclavicle 4.28381e-014 5.56597e-015
rhumerus -30.8224 -16.1748 -76.8328
rradius 32.0023
rwrist 5.56546
rhand -12.4322 14.6011
rfingers 7.12502
rthumb 13.6404 -14.932
lclavicle 4.28381e-014 5.56597e-015
lhumerus -31.1224 12.7507 82.084
lradius 26.9498
lwrist -10.8781
lhand -15.2586 25.5269
lfingers 7.12502
lthumb 10.9153 55.2232
rfemur -9.29129 -0.135523 31.1434
rtibia 18.6862
rfoot -7.1116 -4.255
rtoes 12.5799
lfemur -19.5268 1.22995 -15.2783
ltibia 62.0153
lfoot -3.76305 -0.679776
ltoes -11.3823
169
root 6.1911 17.6481 -4.85109 0.0298575 -26.1759 -0.316248
lowerback 7.41654 0.912614 0.9893
upperback 1.08214 1.38042 3.09985
thorax -3.09367 0.683259 2.51225
lowerneck -17.2853 -3.63164 -8.86165
upperneck 22.4919 -3.87474 4.91147
head 10.3286 -1.98719 2.68072
rclavicle -4.77083e-014 -1.59028e-014
rhumerus -30.4035 -16.3496 -77.008
rradius 32.129
rwrist 5.41276
rhand -12.4977 14.6917
rfingers 7.12502
rthumb 13.5774 -14.8456
lclavicle -4.77083e-014 -1.59028e-014
lhumerus -31.0167 12.6591 82.1366
lradius 26.5877
lwrist -10.7523
lhand -15.8518 24.6508
lfingers 7.12502
lthumb 10.3431 54.3764
rfemur -9.1247 0.124254 31.3808
rtibia 19.0709
rfoot -7.96225 -4.23051
rtoes 13.2128
lfemur -20.7616 1.0209 -15.139
ltibia 61.7757
lfoot -4.75079 -0.756457
ltoes -12.1053
170
root 6.13586 17.6337 -4.74584 0.217283 -26.76 -0.46886
lowerback 7.62254 0.980956 1.08718
upperback 0.936038 1.49056 3.10387
thorax -3.36186 0.737521 2.44666
lowerneck -16.9991 -3.54864 -8.897
upperneck 22.3796 -3.79083 4.98044
head 10.2289 -1.94675 2.72429
rclavicle 5.46658e-015 -8.74653e-015
rhumerus -30.2036 -16.0428 -77.2217
rradius 32.2781
rwrist 5.06115
rhand -12.336 14.634
rfingers 7.12502
rthumb 13.7332 -14.8928
lclavicle 5.46658e-015 -8.74653e-015
lhumerus -31.2435 12.5331 82.1511
lradius 26.4256
lwrist -10.1455
lhand -15.9341 24.2106
lfingers 7.12502
lthumb 10.2637 53.9401
rfemur -8.9584 0.398253 31.5651
rtibia 19.5249
rfoot -8.65627 -4.09026
rtoes 12.7203
lfemur -21.9635 0.734561 -15.0486
ltibia 61.3811
lfoot -5.52974 -1.12531
ltoes -14.4836
171
root 6.08338 17.618 -4.62458 0.275306 -27.2955 -0.533638
lowerback 7.67435 1.00102 1.24375
upperback 0.89217 1.53285 3.09799
thorax -3.43353 0.756316 2.34699
lowerneck -16.955 -3.43814 -8.97314
upperneck 22.47 -3.61867 4.96627
head 10.2409 -1.87819 2.75786
rclavicle 1.5704e-014 4.92986e-014
rhumerus -29.9289 -15.4914 -77.4553
rradius 32.459
rwrist 4.59164
rhand -12.457 14.3084
rfingers 7.12502
rthumb 13.6166 -15.2263
lclavicle 1.5704e-014 4.92986e-014
lhumerus -31.5717 12.7402 82.1561
lradius 26.5284
lwrist -9.81244
lhand -15.0699 24.6882
lfingers 7.12502
lthumb 11.0974 54.3748
rfemur -8.67226 0.378133 31.604
rtibia 19.9784
rfoot -9.44519 -3.6992
rtoes 11.99
lfemur -22.8477 0.442936 -15.1445
ltibia 60.8702
lfoot -6.44537 -1.00084
ltoes -13.7321
172
root 6.03011 17.5894 -4.50813 0.405949 -27.8888 -0.844899
lowerback 7.69468 1.09439 1.64986
upperback 1.00515 1.6854 3.07999
thorax -3.32047 0.825811 2.08408
lowerneck -17.3152 -3.39194 -8.9155
upperneck 22.5641 -3.54881 5.0113
head 10.3369 -1.83198 2.7734
rclavicle 1.86858e-014 -4.29375e-014
rhumerus -29.5906 -15.2598 -77.7348
rradius 32.8102
rwrist 4.45485
rhand -12.2203 14.132
rfingers 7.12502
rthumb 13.8447 -15.3873
lclavicle 1.86858e-014 -4.29375e-014
lhumerus -31.6113 12.5038 82.2974
lradius 26.508
lwrist -9.68963
lhand -15.073 24.678
lfingers 7.12502
lthumb 11.0943 54.3648
rfemur -8.33342 0.618078 31.9205
rtibia 20.352
rfoot -10.2969 -3.58554
rtoes 12.4776
lfemur -23.7249 0.34583 -14.9821
ltibia 60.3478
lfoot -7.36019 -0.735446
ltoes -12.8796
173
root 5.97637 17.5667 -4.39469 0.712079 -28.4307 -1.35775
lowerback 7.73864 1.17706 2.25871
upperback 1.04979 1.84437 3.07882
thorax -3.2835 0.896375 1.72391
lowerneck -17.5952 -3.3488 -8.7955
upperneck 22.5521 -3.51718 5.09866
head 10.3816 -1.79247 2.78769
rclavicle 6.02318e-014 -1.98785e-014
rhumerus -29.3703 -15.0234 -77.994
rradius 33.2335
rwrist 4.46318
rhand -11.8089 14.213
rfingers 7.12502
rthumb 14.2411 -15.2788
lclavicle 6.02318e-014 -1.98785e-014
lhumerus -31.6794 12.0628 82.449
lradius 26.4308
lwrist -9.81968
lhand -15.7752 23.8695
lfingers 7.12502
lthumb 10.417 53.5914
rfemur -8.05592 0.843457 32.4341
rtibia 20.6665
rfoot -11.0176 -3.54074
rtoes 12.492
lfemur -24.6818 0.21079 -14.6206
ltibia 59.7912
lfoot -8.14722 -0.537678
ltoes -13.2504
